# Blender v2.78 (sub 0) OBJ File: '11.blend'
# www.blender.org
mtllib Frog_01.mtl
g Frog_01_Cube.029
v -5.184907 4.775118 -0.492823
v -4.757487 5.899533 -1.461120
v -5.375493 3.794464 -1.800840
v -4.948071 4.918879 -2.769137
v -5.446862 6.111335 -1.519468
v -5.874281 4.986920 -0.551171
v -6.064867 4.006266 -1.859188
v -5.637447 5.130681 -2.827485
v -3.433777 8.251126 0.794390
v -2.576496 9.271904 1.573929
v -3.750605 7.504327 2.226460
v -2.893324 8.525104 3.005999
v -3.158679 9.691931 1.664164
v -4.015961 8.671153 0.884625
v -4.332789 7.924353 2.316695
v -3.475508 8.945130 3.096234
v 1.616074 10.879210 -3.920783
v 0.509911 10.114871 -3.990729
v 1.391210 12.109629 -4.418983
v -0.115742 11.445848 -4.845333
v -0.763547 9.983305 -3.573965
v -0.827227 9.844254 -2.236315
v -1.523219 11.012375 -3.994220
v -2.006741 11.063135 -2.364216
v -0.567464 10.437292 -1.055836
v 0.750063 10.670890 -0.906664
v -1.283067 11.568393 -0.910155
v 0.223884 12.232174 -0.483806
v 1.812157 11.333195 -1.402654
v 2.087202 10.941507 -2.661078
v 1.631362 12.665646 -1.334918
v 1.676216 12.587404 -1.917121
v 0.868540 9.793874 -2.359279
v 0.675607 13.240729 -4.273302
v -0.641921 13.007132 -4.422475
v -1.704015 12.344826 -3.926484
v 0.935369 13.833767 -3.092824
v -0.760397 13.884148 -2.969860
v -1.979059 12.736513 -2.668060
v 0.871690 13.694716 -1.755173
v -0.401769 13.563150 -1.338409
v -1.507931 12.798813 -1.408355
v -5.000000 0.000000 -5.000000
v -2.547262 9.303308 -4.513476
v 2.267590 0.000000 -5.000000
v 3.330544 9.759011 -4.690856
v -5.000000 5.661437 -5.000000
v 3.565266 5.000000 -4.887091
v -1.366205 0.000000 -5.000000
v 0.000000 10.000000 -5.000000
v 0.000000 5.661437 -5.000000
v -4.221108 5.000000 -7.452208
v -4.576482 0.000000 -7.452208
v -1.366205 0.000000 -7.918894
v 0.000000 5.000000 -7.918894
v -4.016555 7.449853 -5.000000
v 4.255349 7.212007 -5.000000
v 0.000000 7.449853 -5.000000
v -5.000000 0.696252 -5.000000
v 2.589330 0.696252 -5.000000
v -1.064847 0.427738 -5.000000
v -4.576482 0.696252 -7.452208
v -1.064847 0.365241 -7.918894
v 3.662246 0.366796 -5.619486
v 3.483215 0.000000 -5.532860
v 2.564037 0.366796 -9.404803
v 2.385005 0.000000 -9.318176
v -2.547262 9.959627 -2.761174
v 2.267590 0.000000 -2.843072
v -5.428288 5.000000 -2.836420
v -6.236379 0.000000 -3.247697
v 4.651415 10.233053 -3.247697
v 4.578110 5.000000 -2.956877
v 0.000000 10.474042 -3.247697
v -1.366205 0.000000 -3.247697
v 5.439608 7.212007 -3.247697
v -4.366353 7.449853 -2.836420
v 2.589330 0.696252 -2.843072
v -6.236379 0.696252 -3.247697
v 4.373492 0.696252 -5.000000
v 4.373492 0.000000 -5.000000
v 4.373492 0.000000 -3.067996
v 4.373492 0.696252 -3.067996
v -4.853948 6.236360 -6.221988
v -5.589595 0.000000 -6.221988
v 0.992654 6.236360 -6.709888
v -1.366205 0.000000 -6.623402
v -0.072194 0.482061 -6.709888
v -5.589595 0.696252 -6.221988
v 4.089229 0.000000 -7.918032
v 4.268260 0.366796 -8.004658
v 4.961889 0.696252 -5.236341
v 4.961889 0.000000 -5.236341
v 5.419448 0.000000 -2.831656
v 5.419448 0.696252 -2.831656
v 1.601842 12.619083 -1.572595
v 1.012715 13.332565 -2.051674
v 1.987225 11.161437 -2.693777
v 1.700880 11.604574 -1.793726
v 1.013426 13.606653 -3.058789
v 1.398809 12.149006 -4.179970
v 0.869235 13.000369 -3.894258
v 1.557401 11.272379 -3.636310
v 1.223516 13.106787 -2.268856
v 1.960079 11.513739 -2.742955
v 1.864670 12.521217 -2.929384
v 1.730402 11.833992 -2.078858
v 1.242803 13.314824 -3.011814
v 1.526667 12.241158 -3.837648
v 1.117833 12.862101 -3.626057
v 1.624718 11.589307 -3.436059
v 5.719158 7.622833 -3.247697
v 4.534899 7.622833 -5.000000
v 0.000000 7.449853 -3.489539
v 4.688716 10.602545 -1.044160
v 4.786308 10.645514 -0.627494
v 4.091958 10.633463 -1.044160
v 4.091958 10.746181 -0.627494
v 4.643841 10.162231 -0.956643
v 4.741433 10.205202 -0.539976
v 4.047083 10.193150 -0.956643
v 4.047083 10.305868 -0.539976
v 1.616074 10.879210 3.920783
v 0.509911 10.114871 3.990729
v 1.391210 12.109629 4.418983
v -0.115742 11.445848 4.845333
v -0.763547 9.983305 3.573965
v -0.827227 9.844254 2.236315
v -1.523219 11.012375 3.994220
v -2.006741 11.063135 2.364216
v -0.567464 10.437292 1.055836
v 0.750063 10.670890 0.906664
v -1.283067 11.568393 0.910155
v 0.223884 12.232174 0.483806
v 1.812157 11.333195 1.402654
v 2.087202 10.941507 2.661078
v 1.631362 12.665646 1.334918
v 1.676216 12.587404 1.917121
v 0.868540 9.793874 2.359279
v 0.675607 13.240729 4.273302
v -0.641921 13.007132 4.422475
v -1.704015 12.344826 3.926484
v 0.935369 13.833767 3.092824
v -0.760397 13.884148 2.969860
v -1.979059 12.736513 2.668060
v 0.871690 13.694716 1.755173
v -0.401769 13.563150 1.338409
v -1.507931 12.798813 1.408355
v -5.000000 0.000000 5.000000
v -2.547262 9.303308 4.513476
v 2.267590 0.000000 5.000000
v 3.330544 9.759011 4.690856
v -5.000000 5.661437 5.000000
v 3.565266 5.000000 4.887091
v -1.366205 0.000000 5.000000
v 0.000000 10.000000 5.000000
v 0.000000 5.661437 5.000000
v -4.221108 5.000000 7.452208
v -4.576482 0.000000 7.452208
v -1.366205 0.000000 7.918894
v 0.000000 5.000000 7.918894
v -6.236379 0.000000 0.000000
v -2.547262 10.655932 0.000000
v 2.959572 0.000000 0.000000
v 5.412091 10.567981 0.000000
v 5.276164 5.000000 0.000000
v -5.660357 5.000000 0.000000
v 0.000000 11.352624 0.000000
v -1.366205 0.000000 0.000000
v -4.016555 7.449853 5.000000
v 4.255349 7.212007 5.000000
v 0.000000 7.449853 5.000000
v 6.362463 7.212007 0.000000
v -4.598422 7.449853 0.000000
v -5.000000 0.696252 5.000000
v 2.589330 0.696252 5.000000
v -1.064847 0.427738 5.000000
v -4.576482 0.696252 7.452208
v -1.064847 0.365241 7.918894
v -6.236379 0.696252 0.000000
v 3.281313 0.696252 0.000000
v 3.662246 0.366796 5.619486
v 3.483215 0.000000 5.532860
v 2.564037 0.366796 9.404803
v 2.385005 0.000000 9.318176
v -2.547262 9.959627 2.761174
v 2.267590 0.000000 2.843072
v -5.428288 5.000000 2.836420
v -6.236379 0.000000 3.247697
v 4.651415 10.233053 3.247697
v 4.578110 5.000000 2.956877
v 0.000000 10.474042 3.247697
v -1.366205 0.000000 3.247697
v 5.439608 7.212007 3.247697
v -4.366353 7.449853 2.836420
v 2.589330 0.696252 2.843072
v -6.236379 0.696252 3.247697
v 4.373492 0.696252 5.000000
v 4.373492 0.000000 5.000000
v 4.373492 0.000000 3.067996
v 4.373492 0.696252 3.067996
v -4.853948 6.236360 6.221988
v -5.589595 0.000000 6.221988
v 0.992654 6.236360 6.709888
v -1.366205 0.000000 6.623402
v -0.072194 0.482061 6.709888
v -5.589595 0.696252 6.221988
v 4.089229 0.000000 7.918032
v 4.268260 0.366796 8.004658
v 4.961889 0.696252 5.236341
v 4.961889 0.000000 5.236341
v 5.419448 0.000000 2.831656
v 5.419448 0.696252 2.831656
v 1.601842 12.619083 1.572595
v 1.012715 13.332565 2.051674
v 1.987225 11.161437 2.693777
v 1.700880 11.604574 1.793726
v 1.013426 13.606653 3.058789
v 1.398809 12.149006 4.179970
v 0.869235 13.000369 3.894258
v 1.557401 11.272379 3.636310
v 1.223516 13.106787 2.268856
v 1.960079 11.513739 2.742955
v 1.864670 12.521217 2.929384
v 1.730402 11.833992 2.078858
v 1.242803 13.314824 3.011814
v 1.526667 12.241158 3.837648
v 1.117833 12.862101 3.626057
v 1.624718 11.589307 3.436059
v 5.719158 7.622833 3.247697
v 6.642013 7.622833 0.000000
v 4.534899 7.622833 5.000000
v 0.000000 7.449853 3.489539
v 0.000000 7.449853 0.000000
v 4.688716 10.602545 1.044160
v 4.786308 10.645514 0.627494
v 4.091958 10.633463 1.044160
v 4.091958 10.746181 0.627494
v 4.643841 10.162231 0.956643
v 4.741433 10.205202 0.539976
v 4.047083 10.193150 0.956643
v 4.047083 10.305868 0.539976
vn 0.9528 -0.2927 0.0806
vn -0.9528 0.2927 -0.0806
vn 0.2807 0.7479 -0.6016
vn 0.1248 0.6198 0.7748
vn -0.1248 -0.6198 -0.7748
vn -0.2807 -0.7479 0.6016
vn 0.8046 -0.5805 -0.1247
vn -0.8046 0.5805 0.1247
vn 0.5617 0.6761 0.4768
vn 0.2106 0.4754 -0.8542
vn -0.2106 -0.4754 0.8542
vn -0.5617 -0.6761 -0.4768
vn 0.3527 -0.3428 -0.8707
vn -0.2502 -0.5697 -0.7828
vn 0.1144 0.2555 -0.9600
vn -0.4884 0.0285 -0.8722
vn -0.7292 -0.6667 -0.1543
vn -0.6795 -0.5517 0.4836
vn -0.9675 -0.0684 -0.2436
vn -0.9178 0.0466 0.3943
vn -0.1144 -0.2555 0.9600
vn 0.4884 -0.0285 0.8722
vn -0.3527 0.3428 0.8707
vn 0.2502 0.5697 0.7828
vn 0.8336 0.5442 -0.0945
vn 0.8233 0.5205 -0.2264
vn 0.8960 0.4396 0.0630
vn 0.8643 0.3655 -0.3455
vn 0.6517 -0.6462 0.3970
vn 0.0489 -0.8732 0.4849
vn 0.6020 -0.7613 -0.2409
vn -0.0008 -0.9882 -0.1530
vn -0.0489 0.8732 -0.4849
vn -0.6517 0.6462 -0.3970
vn 0.0008 0.9882 0.1530
vn -0.6020 0.7613 0.2409
vn -0.7761 0.6069 -0.1711
vn 0.0398 0.0760 -0.9963
vn 0.0161 0.0084 -0.9998
vn -0.9217 0.0970 -0.3755
vn -0.8065 0.0894 -0.5844
vn -0.0878 0.1383 -0.9865
vn -0.1190 0.0189 -0.9927
vn -0.0669 0.7056 -0.7054
vn 0.0000 -1.0000 0.0000
vn 0.0242 0.9994 0.0227
vn 0.1025 0.9602 -0.2598
vn 0.8858 -0.4127 -0.2123
vn -0.2463 0.9375 -0.2457
vn 0.8945 0.3700 -0.2509
vn -0.9149 0.3966 -0.0749
vn 0.8847 -0.4047 -0.2311
vn 0.0000 0.0000 -1.0000
vn 0.0110 -0.0301 -0.9995
vn 0.8864 -0.4096 -0.2157
vn 0.8056 -0.1651 -0.5690
vn -0.1356 0.0385 -0.9900
vn -0.7719 0.0000 -0.6357
vn -0.8171 0.0000 -0.5765
vn -0.8965 0.4327 -0.0951
vn 0.5695 -0.4417 -0.6932
vn 0.1196 0.0359 0.9922
vn -0.3611 0.1277 -0.9237
vn -1.0000 0.0000 0.0000
vn 0.1148 -0.0265 0.9930
vn 0.8111 -0.3286 -0.4839
vn 0.7016 0.3753 -0.6057
vn -0.2740 0.9153 -0.2952
vn 0.0000 0.0262 -0.9997
vn 0.0693 0.9482 -0.3100
vn -0.9863 0.1604 -0.0376
vn -0.8229 0.5586 -0.1036
vn 0.0000 1.0000 0.0000
vn 0.9646 0.0742 -0.2530
vn 0.1250 -0.0315 0.9917
vn 0.8952 -0.3832 0.2275
vn -0.9006 0.0000 0.4346
vn 0.8657 -0.1678 0.4717
vn -0.0010 0.9990 -0.0437
vn 0.0167 0.9286 0.3707
vn -0.9787 0.0685 0.1937
vn 0.9824 0.0000 -0.1869
vn -0.2204 0.0000 0.9754
vn -0.3727 0.0000 -0.9279
vn 0.9455 0.3152 0.0815
vn 0.9759 0.1372 -0.1695
vn 0.9135 0.2420 -0.3270
vn 0.9862 0.1612 -0.0370
vn -0.0279 -0.1921 -0.9810
vn 0.2810 0.9457 -0.1633
vn 0.0510 0.9848 -0.1660
vn 0.1434 0.9894 -0.0208
vn 0.0995 0.9759 -0.1940
vn -0.9671 0.1407 0.2120
vn 0.0100 0.1940 0.9810
vn 0.9950 -0.0962 0.0260
vn 0.3527 -0.3428 0.8707
vn -0.2502 -0.5697 0.7828
vn 0.1144 0.2555 0.9600
vn -0.4884 0.0285 0.8722
vn -0.7292 -0.6667 0.1543
vn -0.6795 -0.5517 -0.4836
vn -0.9675 -0.0684 0.2436
vn -0.9178 0.0466 -0.3943
vn -0.1144 -0.2555 -0.9600
vn 0.4884 -0.0285 -0.8722
vn -0.3527 0.3428 -0.8707
vn 0.2502 0.5697 -0.7828
vn 0.8336 0.5442 0.0945
vn 0.8233 0.5205 0.2264
vn 0.8960 0.4396 -0.0630
vn 0.8643 0.3655 0.3455
vn 0.6517 -0.6462 -0.3970
vn 0.0489 -0.8732 -0.4849
vn 0.6020 -0.7613 0.2409
vn -0.0008 -0.9882 0.1530
vn -0.0489 0.8732 0.4849
vn -0.6517 0.6462 0.3970
vn 0.0008 0.9882 -0.1530
vn -0.6020 0.7613 -0.2409
vn -0.7761 0.6069 0.1711
vn 0.0398 0.0760 0.9963
vn 0.0161 0.0084 0.9998
vn -0.9217 0.0970 0.3755
vn -0.8065 0.0894 0.5844
vn -0.0878 0.1383 0.9865
vn -0.1190 0.0189 0.9927
vn -0.0669 0.7056 0.7054
vn 0.0242 0.9994 -0.0227
vn 0.1025 0.9602 0.2598
vn 0.8858 -0.4127 0.2123
vn -0.2463 0.9375 0.2457
vn 0.8945 0.3700 0.2509
vn -0.9149 0.3966 0.0749
vn 0.8847 -0.4047 0.2311
vn 0.0000 0.0000 1.0000
vn 0.0110 -0.0301 0.9995
vn 0.8864 -0.4096 0.2157
vn 0.8056 -0.1651 0.5690
vn -0.1356 0.0385 0.9900
vn -0.7719 0.0000 0.6357
vn -0.8171 0.0000 0.5765
vn -0.8965 0.4327 0.0951
vn 0.5695 -0.4417 0.6932
vn 0.1196 0.0359 -0.9922
vn -0.3611 0.1277 0.9237
vn 0.1148 -0.0265 -0.9930
vn 0.8111 -0.3286 0.4839
vn 0.7016 0.3753 0.6057
vn -0.2740 0.9153 0.2952
vn 0.0000 0.0262 0.9997
vn 0.0693 0.9482 0.3100
vn -0.9863 0.1604 0.0376
vn -0.8229 0.5586 0.1036
vn 0.9646 0.0742 0.2530
vn 0.1250 -0.0315 -0.9917
vn 0.8952 -0.3832 -0.2275
vn -0.9006 0.0000 -0.4346
vn 0.8657 -0.1678 -0.4717
vn -0.0010 0.9990 0.0437
vn 0.0167 0.9286 -0.3707
vn -0.9787 0.0685 -0.1937
vn 0.9824 0.0000 0.1869
vn -0.2204 0.0000 -0.9754
vn -0.3727 0.0000 0.9279
vn 0.9455 0.3152 -0.0815
vn 0.9759 0.1372 0.1695
vn 0.9135 0.2420 0.3270
vn 0.9862 0.1612 0.0370
vn -0.0279 -0.1921 0.9810
vn 0.2810 0.9457 0.1633
vn 0.0510 0.9848 0.1660
vn 0.1434 0.9894 0.0208
vn 0.0995 0.9759 0.1940
vn -0.9671 0.1407 -0.2120
vn 0.0100 0.1940 -0.9810
vn 0.9950 -0.0962 -0.0260
vn 0.9712 0.0856 0.2225
vn 0.9227 -0.0286 -0.3844
vn 0.7428 0.6545 0.1408
vn 0.6909 0.5466 -0.4732
vn 0.9712 0.0856 -0.2225
vn 0.9227 -0.0286 0.3844
vn 0.7428 0.6545 -0.1408
vn 0.6909 0.5466 0.4732
vn 0.9831 0.0469 0.1769
vn 0.7094 0.5850 -0.3932
vn 0.9068 0.0403 -0.4196
vn 0.7401 0.4701 -0.4808
vn 0.7390 0.6703 0.0680
vn 0.9486 -0.0353 -0.3146
vn 0.9586 0.1389 0.2485
vn 0.7777 0.6037 0.1752
vn 0.9831 0.0469 -0.1769
vn 0.7094 0.5850 0.3932
vn 0.9068 0.0403 0.4196
vn 0.7401 0.4701 0.4808
vn 0.7390 0.6703 -0.0680
vn 0.9486 -0.0353 0.3146
vn 0.9586 0.1389 -0.2485
vn 0.7777 0.6037 -0.1752
vn 0.0404 0.9992 -0.0055
vn 0.0494 0.9986 -0.0179
vn 0.0340 -0.9993 -0.0123
vn 0.0281 -0.9996 -0.0038
vn 0.0404 0.9992 0.0055
vn 0.0494 0.9986 0.0179
vn 0.0340 -0.9993 0.0123
vn 0.0281 -0.9996 0.0038
usemtl 4CAF50
s off
f 1//1 3//1 4//1 2//1
f 6//2 5//2 8//2 7//2
f 2//3 4//3 8//3 5//3
f 1//4 2//4 5//4 6//4
f 4//5 3//5 7//5 8//5
f 3//6 1//6 6//6 7//6
f 9//7 10//7 12//7 11//7
f 14//8 15//8 16//8 13//8
f 10//9 13//9 16//9 12//9
f 9//10 14//10 13//10 10//10
f 12//11 16//11 15//11 11//11
f 11//12 15//12 14//12 9//12
f 17//13 18//13 20//13 19//13
f 18//14 21//14 23//14 20//14
f 19//15 20//15 35//15 34//15
f 20//16 23//16 36//16 35//16
f 21//17 22//17 24//17 23//17
f 22//18 25//18 27//18 24//18
f 23//19 24//19 39//19 36//19
f 24//20 27//20 42//20 39//20
f 25//21 26//21 28//21 27//21
f 26//22 29//22 31//22 28//22
f 27//23 28//23 41//23 42//23
f 28//24 31//24 40//24 41//24
f 19//25 34//25 102//25 101//25
f 40//26 31//26 96//26 97//26
f 29//27 30//27 98//27 99//27
f 30//28 17//28 103//28 98//28
f 29//29 26//29 33//29 30//29
f 26//30 25//30 22//30 33//30
f 30//31 33//31 18//31 17//31
f 33//32 22//32 21//32 18//32
f 34//33 35//33 38//33 37//33
f 35//34 36//34 39//34 38//34
f 37//35 38//35 41//35 40//35
f 38//36 39//36 42//36 41//36
f 77//37 68//37 44//37 56//37
f 58//38 50//38 46//38 113//38
f 61//39 51//39 48//39 60//39
f 79//40 70//40 47//40 59//40
f 89//41 84//41 52//41 62//41
f 56//42 44//42 50//42 58//42
f 62//43 52//43 55//43 63//43
f 84//44 86//44 55//44 52//44
f 87//45 85//45 53//45 54//45
f 88//46 61//46 64//46 91//46
f 71//45 75//45 169//45 162//45
f 74//47 168//47 118//47 117//47
f 78//48 73//48 166//48 181//48
f 74//49 68//49 163//49 168//49
f 75//45 69//45 164//45 169//45
f 112//50 72//50 165//50 231//50
f 167//51 174//51 77//51 70//51
f 73//52 76//52 173//52 166//52
f 47//53 56//53 58//53 51//53
f 51//54 58//54 57//54 48//54
f 69//55 78//55 181//55 164//55
f 86//56 88//56 63//56 55//56
f 53//57 62//57 63//57 54//57
f 85//58 89//58 62//58 53//58
f 71//59 79//59 59//59 43//59
f 49//53 61//53 60//53 45//53
f 70//60 77//60 56//60 47//60
f 91//61 90//61 67//61 66//61
f 87//45 54//45 67//45 90//45
f 61//62 49//62 65//62 64//62
f 54//63 63//63 66//63 67//63
f 162//64 180//64 79//64 71//64
f 78//65 69//65 82//65 83//65
f 48//66 57//66 76//66 73//66
f 113//67 46//67 72//67 112//67
f 49//45 45//45 69//45 75//45
f 50//68 44//68 68//68 74//68
f 60//69 48//69 80//69
f 46//70 50//70 74//70 72//70
f 43//45 49//45 75//45 71//45
f 180//71 167//71 70//71 79//71
f 174//72 163//72 68//72 77//72
f 80//73 83//73 95//73 92//73
f 80//74 48//74 73//74 83//74
f 45//53 60//53 80//53 81//53
f 73//75 78//75 83//75
f 69//45 45//45 81//45 82//45
f 49//45 87//45 90//45 65//45
f 64//76 65//76 90//76 91//76
f 43//77 59//77 89//77 85//77
f 51//78 61//78 88//78 86//78
f 63//79 88//79 91//79 66//79
f 49//45 43//45 85//45 87//45
f 47//80 51//80 86//80 84//80
f 59//81 47//81 84//81 89//81
f 93//82 92//82 95//82 94//82
f 82//45 81//45 93//45 94//45
f 83//83 82//83 94//83 95//83
f 81//84 80//84 92//84 93//84
f 37//85 40//85 97//85 100//85
f 31//86 29//86 99//86 96//86
f 34//87 37//87 100//87 102//87
f 17//88 19//88 101//88 103//88
f 118//89 116//89 120//89 122//89
f 165//90 72//90 115//90 116//90
f 72//91 74//91 117//91 115//91
f 168//92 165//92 116//92 118//92
f 119//93 121//93 122//93 120//93
f 116//94 115//94 119//94 120//94
f 115//95 117//95 121//95 119//95
f 117//96 118//96 122//96 121//96
f 123//97 125//97 126//97 124//97
f 124//98 126//98 129//98 127//98
f 125//99 140//99 141//99 126//99
f 126//100 141//100 142//100 129//100
f 127//101 129//101 130//101 128//101
f 128//102 130//102 133//102 131//102
f 129//103 142//103 145//103 130//103
f 130//104 145//104 148//104 133//104
f 131//105 133//105 134//105 132//105
f 132//106 134//106 137//106 135//106
f 133//107 148//107 147//107 134//107
f 134//108 147//108 146//108 137//108
f 125//109 219//109 220//109 140//109
f 146//110 215//110 214//110 137//110
f 135//111 217//111 216//111 136//111
f 136//112 216//112 221//112 123//112
f 135//113 136//113 139//113 132//113
f 132//114 139//114 128//114 131//114
f 136//115 123//115 124//115 139//115
f 139//116 124//116 127//116 128//116
f 140//117 143//117 144//117 141//117
f 141//118 144//118 145//118 142//118
f 143//119 146//119 147//119 144//119
f 144//120 147//120 148//120 145//120
f 195//121 170//121 150//121 186//121
f 172//122 232//122 152//122 156//122
f 177//123 176//123 154//123 157//123
f 197//124 175//124 153//124 188//124
f 207//125 178//125 158//125 202//125
f 170//126 172//126 156//126 150//126
f 178//127 179//127 161//127 158//127
f 202//128 158//128 161//128 204//128
f 205//45 160//45 159//45 203//45
f 206//129 209//129 182//129 177//129
f 189//45 162//45 169//45 193//45
f 192//130 237//130 238//130 168//130
f 196//131 181//131 166//131 191//131
f 192//132 168//132 163//132 186//132
f 193//45 169//45 164//45 187//45
f 230//133 231//133 165//133 190//133
f 167//134 188//134 195//134 174//134
f 191//135 166//135 173//135 194//135
f 153//136 157//136 172//136 170//136
f 157//137 154//137 171//137 172//137
f 187//138 164//138 181//138 196//138
f 204//139 161//139 179//139 206//139
f 159//140 160//140 179//140 178//140
f 203//141 159//141 178//141 207//141
f 189//142 149//142 175//142 197//142
f 155//136 151//136 176//136 177//136
f 188//143 153//143 170//143 195//143
f 209//144 184//144 185//144 208//144
f 205//45 208//45 185//45 160//45
f 177//145 182//145 183//145 155//145
f 160//146 185//146 184//146 179//146
f 162//64 189//64 197//64 180//64
f 196//147 201//147 200//147 187//147
f 154//148 191//148 194//148 171//148
f 232//149 230//149 190//149 152//149
f 155//45 193//45 187//45 151//45
f 156//150 192//150 186//150 150//150
f 176//151 198//151 154//151
f 152//152 190//152 192//152 156//152
f 149//45 189//45 193//45 155//45
f 180//153 197//153 188//153 167//153
f 174//154 195//154 186//154 163//154
f 198//73 210//73 213//73 201//73
f 198//155 201//155 191//155 154//155
f 151//136 199//136 198//136 176//136
f 191//156 201//156 196//156
f 187//45 200//45 199//45 151//45
f 155//45 183//45 208//45 205//45
f 182//157 209//157 208//157 183//157
f 149//158 203//158 207//158 175//158
f 157//159 204//159 206//159 177//159
f 179//160 184//160 209//160 206//160
f 155//45 205//45 203//45 149//45
f 153//161 202//161 204//161 157//161
f 175//162 207//162 202//162 153//162
f 211//163 212//163 213//163 210//163
f 200//45 212//45 211//45 199//45
f 201//164 213//164 212//164 200//164
f 199//165 211//165 210//165 198//165
f 143//166 218//166 215//166 146//166
f 137//167 214//167 217//167 135//167
f 140//168 220//168 218//168 143//168
f 123//169 221//169 219//169 125//169
f 238//170 242//170 240//170 236//170
f 165//171 236//171 235//171 190//171
f 190//172 235//172 237//172 192//172
f 168//173 238//173 236//173 165//173
f 239//174 240//174 242//174 241//174
f 236//175 240//175 239//175 235//175
f 235//176 239//176 241//176 237//176
f 237//177 241//177 242//177 238//177
usemtl 1A1A1A
f 107//178 105//178 106//178 32//178
f 105//179 111//179 109//179 106//179
f 32//180 106//180 108//180 104//180
f 106//181 109//181 110//181 108//181
f 225//182 138//182 224//182 223//182
f 223//183 224//183 227//183 229//183
f 138//184 222//184 226//184 224//184
f 224//185 226//185 228//185 227//185
usemtl FF9800
f 96//186 99//186 107//186 32//186
f 101//187 102//187 110//187 109//187
f 98//188 103//188 111//188 105//188
f 102//189 100//189 108//189 110//189
f 97//190 96//190 32//190 104//190
f 103//191 101//191 109//191 111//191
f 99//192 98//192 105//192 107//192
f 100//193 97//193 104//193 108//193
f 214//194 138//194 225//194 217//194
f 219//195 227//195 228//195 220//195
f 216//196 223//196 229//196 221//196
f 220//197 228//197 226//197 218//197
f 215//198 222//198 138//198 214//198
f 221//199 229//199 227//199 219//199
f 217//200 225//200 223//200 216//200
f 218//201 226//201 222//201 215//201
usemtl F44336
f 173//202 76//202 114//202 234//202
f 76//203 57//203 58//203 114//203
f 58//204 113//204 112//204 114//204
f 231//205 234//205 114//205 112//205
f 173//206 234//206 233//206 194//206
f 194//207 233//207 172//207 171//207
f 172//208 233//208 230//208 232//208
f 231//209 230//209 233//209 234//209
