# 3ds Max Wavefront OBJ Exporter v0.97b - (c)2007 guruware
# File Created: 18.01.2018 14:22:06

mtllib icosahedron_01.mtl

#
# object Hedra001
#

v  0.0000 8.5065 5.2573
v  8.5065 5.2573 -0.0000
v  0.0000 8.5065 -5.2573
v  5.2573 0.0000 -8.5065
v  -5.2573 0.0000 -8.5065
v  -8.5065 5.2573 -0.0000
v  -5.2573 0.0000 8.5065
v  5.2573 0.0000 8.5065
v  8.5065 -5.2573 0.0000
v  0.0000 -8.5065 5.2573
v  0.0000 -8.5065 -5.2573
v  -8.5065 -5.2573 0.0000
# 12 vertices

vn 0.3568 0.9342 -0.0000
vn 0.5774 0.5774 -0.5774
vn -0.0000 0.3568 -0.9342
vn -0.5774 0.5774 -0.5774
vn -0.3568 0.9342 -0.0000
vn -0.5774 0.5774 0.5774
vn -0.0000 0.3568 0.9342
vn 0.5774 0.5774 0.5774
vn 0.9342 -0.0000 -0.3568
vn 0.9342 0.0000 0.3568
vn 0.0000 -0.3568 0.9342
vn 0.5774 -0.5774 0.5774
vn 0.5774 -0.5774 -0.5774
vn 0.3568 -0.9342 -0.0000
vn -0.5774 -0.5774 0.5774
vn -0.3568 -0.9342 -0.0000
vn 0.0000 -0.3568 -0.9342
vn -0.5774 -0.5774 -0.5774
vn -0.9342 0.0000 0.3568
vn -0.9342 -0.0000 -0.3568
# 20 vertex normals

vt 0.0000 -0.3090 0.5000
vt 0.5000 0.0000 0.3090
vt 0.0000 0.3090 0.5000
vt 0.3090 0.5000 0.0000
vt 0.5000 0.0000 -0.3090
vt 0.0000 0.3090 -0.5000
vt -0.5000 0.0000 0.3090
vt -0.5000 0.0000 -0.3090
vt -0.3090 0.5000 0.0000
vt 0.0000 -0.3090 -0.5000
vt -0.0000 -0.3090 0.5000
vt -0.3090 -0.5000 0.0000
vt 0.3090 -0.5000 0.0000
vt 0.5000 -0.0000 -0.3090
vt -0.0000 -0.3090 -0.5000
vt -0.5000 -0.0000 -0.3090
# 16 texture coords

g Hedra001
usemtl wire_225143087
s off
f 1/1/1 2/2/1 3/3/1 
f 2/3/2 4/2/2 3/4/2 
f 4/3/3 5/1/3 3/2/3 
f 5/5/4 6/6/4 3/4/4 
f 6/7/5 1/1/5 3/3/5 
f 6/6/6 7/8/6 1/9/6 
f 7/10/7 8/6/7 1/5/7 
f 8/7/8 2/3/8 1/9/8 
f 2/3/9 9/11/9 4/2/9 
f 2/3/10 8/7/10 9/11/10 
f 7/10/11 10/8/11 8/6/11 
f 10/12/12 9/11/12 8/7/12 
f 9/11/13 11/13/13 4/2/13 
f 9/14/14 10/10/14 11/6/14 
f 7/8/15 12/15/15 10/12/15 
f 12/16/16 11/6/16 10/10/16 
f 11/7/17 5/1/17 4/3/17 
f 11/13/18 12/15/18 5/5/18 
f 7/8/19 6/6/19 12/15/19 
f 6/6/20 5/5/20 12/15/20 
# 0 polygons - 20 triangles

